<svg width="37" height="37" viewBox="0 0 37 37" fill="none" xmlns="http://www.w3.org/2000/svg">
<path d="M12.3333 29.9792C12.3333 30.5925 12.577 31.1807 13.0106 31.6143C13.4443 32.048 14.0325 32.2917 14.6458 32.2917C15.2591 32.2917 15.8473 32.048 16.281 31.6143C16.7147 31.1807 16.9583 30.5925 16.9583 29.9792V19.9583H26.9792C27.5925 19.9583 28.1807 19.7147 28.6143 19.281C29.048 18.8473 29.2917 18.2591 29.2917 17.6458C29.2917 17.0325 29.048 16.4443 28.6143 16.0106C28.1807 15.577 27.5925 15.3333 26.9792 15.3333H16.9583V5.3125C16.9583 4.69919 16.7147 4.11099 16.281 3.67732C15.8473 3.24364 15.2591 3 14.6458 3C14.0325 3 13.4443 3.24364 13.0106 3.67732C12.577 4.11099 12.3333 4.69919 12.3333 5.3125V15.3333H2.3125C1.69919 15.3333 1.11099 15.577 0.677316 16.0106C0.243638 16.4443 0 17.0325 0 17.6458C0 18.2591 0.243638 18.8473 0.677316 19.281C1.11099 19.7147 1.69919 19.9583 2.3125 19.9583H12.3333V29.9792Z" fill="#545454"/>
</svg>
