<svg width="41" height="45" viewBox="0 0 41 45" fill="none" xmlns="http://www.w3.org/2000/svg">
<path d="M37.4603 21.7179C37.1152 20.817 36.3755 20.601 35.875 20.5493V15.059C35.875 13.0228 34.3426 11.3668 32.4583 11.3668H22.2083V8.80075C22.7293 8.29492 23.0625 7.56755 23.0625 6.75157C23.0625 6.01715 22.7925 5.31281 22.3119 4.79349C21.8314 4.27417 21.1796 3.98242 20.5 3.98242C19.8203 3.98242 19.1686 4.27417 18.688 4.79349C18.2074 5.31281 17.9375 6.01715 17.9375 6.75157C17.9375 7.56755 18.2706 8.29492 18.7916 8.80075V11.3668H8.54162C6.65733 11.3668 5.12495 13.0228 5.12495 15.059V20.5918L4.98487 20.6029C4.55432 20.6365 4.1515 20.8449 3.8574 21.1864C3.56329 21.5279 3.39971 21.977 3.39954 22.4434V26.1356C3.39954 26.6253 3.57952 27.0948 3.8999 27.441C4.22027 27.7873 4.65479 27.9817 5.10787 27.9817H5.12495V37.2123C5.12495 39.2485 6.65733 40.9045 8.54162 40.9045H32.4583C34.3426 40.9045 35.875 39.2485 35.875 37.2123V27.9817C36.328 27.9817 36.7626 27.7873 37.0829 27.441C37.4033 27.0948 37.5833 26.6253 37.5833 26.1356V22.5579C37.603 22.2714 37.5609 21.9839 37.4603 21.7179ZM8.54162 37.2123V15.059H32.4583L32.46 22.4361L32.4583 22.4434V26.1356L32.46 26.1449L32.4617 37.2123H8.54162Z" fill="#545454"/>
<path d="M14.5209 26.1354C15.9361 26.1354 17.0834 24.4823 17.0834 22.4432C17.0834 20.404 15.9361 18.751 14.5209 18.751C13.1056 18.751 11.9584 20.404 11.9584 22.4432C11.9584 24.4823 13.1056 26.1354 14.5209 26.1354Z" fill="#545454"/>
<path d="M26.4791 26.1354C27.8944 26.1354 29.0416 24.4823 29.0416 22.4432C29.0416 20.404 27.8944 18.751 26.4791 18.751C25.0639 18.751 23.9166 20.404 23.9166 22.4432C23.9166 24.4823 25.0639 26.1354 26.4791 26.1354Z" fill="#545454"/>
<path d="M13.6666 29.8281H27.3333V33.5203H13.6666V29.8281Z" fill="#545454"/>
</svg>
