<svg width="375" height="376" viewBox="0 0 375 376" fill="none" xmlns="http://www.w3.org/2000/svg">
<path d="M149.241 333.136C116.785 324.634 88.1489 305.426 67.968 278.624C47.7872 251.821 37.2429 218.991 38.0423 185.45C38.8417 151.909 50.9379 119.619 72.3727 93.8077C93.8074 67.9967 123.326 50.1753 156.15 43.2287C188.974 36.2821 223.181 40.6168 253.235 55.5312C283.289 70.4456 307.429 95.0666 321.748 125.408C336.067 155.75 339.727 190.037 332.135 222.717C324.543 255.398 306.143 284.559 279.915 305.481" stroke="white" stroke-opacity="0.44" stroke-width="2"/>
<path d="M353 187.5C353 223.491 341.338 258.512 319.761 287.318C298.185 316.124 267.855 337.163 233.317 347.283C198.778 357.402 161.89 356.058 128.18 343.452C94.4693 330.845 65.7511 307.655 46.3279 277.356C26.9048 247.056 17.8224 211.279 20.4415 175.383C23.0606 139.488 37.2402 105.408 60.8558 78.2489C84.4715 51.0897 116.252 32.3138 151.435 24.7342C186.619 17.1546 223.311 21.1794 256.015 36.2056" stroke="white" stroke-opacity="0.4" stroke-width="2"/>
<path d="M46.3369 65.7912C70.9988 37.1513 103.745 16.6869 140.251 7.10086C176.756 -2.48521 215.302 -0.742048 250.799 12.1001C286.295 24.9423 317.071 48.2794 339.062 79.0292C361.053 109.779 373.223 146.495 373.964 184.326C374.705 222.157 363.983 259.324 343.215 290.916C322.446 322.509 292.608 347.04 257.642 361.271C222.676 375.501 184.227 378.761 147.375 370.621C110.522 362.48 76.9993 343.321 51.2342 315.675" stroke="white" stroke-opacity="0.4" stroke-width="2"/>
</svg>
